<svg width="74" height="56" viewBox="0 0 74 56" fill="none" xmlns="http://www.w3.org/2000/svg">
<path d="M71.7328 54.8021H6.43701C6.43701 54.8021 8.71886 43.9194 38.0318 43.9194C67.3447 43.9194 71.7328 54.8021 71.7328 54.8021Z" stroke="black" stroke-width="2"/>
<path d="M31.0114 43.9196L25.0435 22.5054" stroke="black" stroke-width="2"/>
<path d="M2.04895 33.2123L1.05683 33.3376C1.116 33.8064 1.49523 34.1698 1.96611 34.2089C2.43699 34.2481 2.87101 33.9523 3.00678 33.4997L2.04895 33.2123ZM18.3729 28.9997L17.6658 29.7068C17.933 29.974 18.3279 30.0678 18.6867 29.9492C19.0454 29.8307 19.3067 29.52 19.3621 29.1463L18.3729 28.9997ZM33.8192 25.1381L33.0157 25.7334C33.2601 26.0634 33.6815 26.2104 34.0781 26.104C34.4748 25.9977 34.7661 25.6597 34.8128 25.2517L33.8192 25.1381ZM50.1432 20.3989L49.4506 21.1203C49.7606 21.4178 50.2258 21.4841 50.6065 21.2851C50.9872 21.086 51.1982 20.6661 51.1308 20.2418L50.1432 20.3989ZM36.9787 5.12812L36.4442 5.97331L36.9787 5.12812ZM19.6016 3.54838L19.4268 2.56377L19.4194 2.56509L19.412 2.56651L19.6016 3.54838ZM5.03294 14.2556L4.21357 13.6823L5.03294 14.2556ZM2.04895 33.2123C3.00678 33.4997 3.00666 33.5001 3.00655 33.5004C3.00652 33.5005 3.00642 33.5009 3.00636 33.5011C3.00624 33.5015 3.00615 33.5018 3.00608 33.502C3.00594 33.5025 3.00589 33.5026 3.00594 33.5025C3.00603 33.5022 3.00651 33.5006 3.00737 33.4979C3.00909 33.4924 3.01235 33.4822 3.01723 33.4675C3.02698 33.4381 3.04316 33.3908 3.06629 33.3277C3.11258 33.2015 3.18644 33.0131 3.292 32.7796C3.50368 32.3114 3.8394 31.6698 4.33028 30.9885C5.31152 29.6268 6.88732 28.1384 9.31988 27.5106L8.82013 25.5741C5.81133 26.3505 3.8766 28.1971 2.70766 29.8193C2.12344 30.6301 1.72416 31.3926 1.4696 31.9557C1.34204 32.2378 1.24998 32.4717 1.18863 32.639C1.15793 32.7226 1.13485 32.7898 1.11881 32.8382C1.11079 32.8624 1.10452 32.8819 1.09993 32.8965C1.09764 32.9038 1.09576 32.9098 1.0943 32.9146C1.09357 32.917 1.09294 32.919 1.09241 32.9208C1.09214 32.9216 1.0919 32.9224 1.09169 32.9231C1.09158 32.9235 1.09144 32.9239 1.09139 32.9241C1.09125 32.9246 1.09112 32.925 2.04895 33.2123ZM9.31988 27.5106C11.7513 26.8832 13.8316 27.4271 15.3292 28.146C16.0789 28.5058 16.6741 28.9061 17.0791 29.2142C17.281 29.3678 17.434 29.4972 17.5336 29.5854C17.5834 29.6294 17.6197 29.663 17.6419 29.684C17.653 29.6945 17.6606 29.7018 17.6646 29.7057C17.6666 29.7077 17.6677 29.7088 17.6679 29.709C17.668 29.7091 17.6679 29.7089 17.6676 29.7086C17.6674 29.7084 17.6671 29.7082 17.6668 29.7079C17.6667 29.7077 17.6664 29.7075 17.6664 29.7074C17.6661 29.7071 17.6658 29.7068 18.3729 28.9997C19.08 28.2926 19.0797 28.2923 19.0794 28.292C19.0792 28.2918 19.0789 28.2915 19.0786 28.2912C19.0781 28.2907 19.0775 28.2901 19.0768 28.2894C19.0755 28.2882 19.074 28.2866 19.0722 28.2849C19.0687 28.2814 19.0641 28.2769 19.0587 28.2716C19.0477 28.261 19.033 28.2468 19.0145 28.2294C18.9775 28.1945 18.9255 28.1465 18.8591 28.0877C18.7263 27.9701 18.5351 27.8089 18.29 27.6224C17.8009 27.2503 17.0905 26.7729 16.1947 26.3429C14.4013 25.4821 11.8301 24.7973 8.82013 25.5741L9.31988 27.5106ZM18.3729 28.9997C19.3621 29.1463 19.362 29.1468 19.362 29.1473C19.3619 29.1474 19.3619 29.1479 19.3618 29.1482C19.3617 29.1487 19.3617 29.1492 19.3616 29.1497C19.3615 29.1505 19.3614 29.1511 19.3613 29.1514C19.3612 29.152 19.3613 29.1515 19.3616 29.15C19.3621 29.1469 19.3633 29.1395 19.3655 29.1281C19.3697 29.1052 19.3773 29.0662 19.3894 29.0129C19.4135 28.9063 19.4551 28.7429 19.5218 28.537C19.6553 28.1243 19.8877 27.5467 20.2777 26.9129C21.0504 25.6573 22.4555 24.1559 25.0169 23.2754L24.3668 21.384C21.3113 22.4343 19.557 24.2679 18.5744 25.8647C18.0868 26.657 17.7926 27.3848 17.619 27.9211C17.532 28.1896 17.4749 28.4116 17.4387 28.5717C17.4206 28.6517 17.4077 28.7165 17.3989 28.764C17.3945 28.7877 17.3911 28.8072 17.3886 28.8221C17.3874 28.8296 17.3864 28.836 17.3855 28.8411C17.3851 28.8437 17.3848 28.846 17.3845 28.848C17.3843 28.849 17.3842 28.85 17.3841 28.8508C17.384 28.8513 17.3839 28.8518 17.3839 28.8521C17.3838 28.8526 17.3837 28.8532 18.3729 28.9997ZM25.0169 23.2754C27.4817 22.4281 29.4564 23.0366 30.8491 23.8684C31.553 24.2888 32.1039 24.7654 32.4782 25.1372C32.6645 25.3223 32.8045 25.4789 32.8955 25.586C32.941 25.6394 32.9739 25.6802 32.9941 25.7057C33.0042 25.7185 33.0111 25.7274 33.0147 25.7321C33.0165 25.7345 33.0175 25.7358 33.0177 25.736C33.0177 25.7361 33.0176 25.736 33.0173 25.7355C33.0171 25.7353 33.0169 25.735 33.0166 25.7346C33.0165 25.7345 33.0163 25.7341 33.0162 25.7341C33.0159 25.7337 33.0157 25.7334 33.8192 25.1381C34.6228 24.5429 34.6225 24.5425 34.6222 24.5421C34.6221 24.5419 34.6217 24.5415 34.6215 24.5412C34.621 24.5405 34.6205 24.5398 34.6199 24.539C34.6187 24.5374 34.6173 24.5355 34.6157 24.5334C34.6124 24.5291 34.6083 24.5236 34.6033 24.5171C34.5933 24.504 34.5797 24.4865 34.5627 24.465C34.5288 24.422 34.4808 24.3629 34.4193 24.2906C34.2964 24.1459 34.1183 23.9474 33.8877 23.7184C33.4282 23.2619 32.7505 22.6744 31.8746 22.1513C30.1079 21.0962 27.5189 20.3005 24.3668 21.384L25.0169 23.2754ZM33.8192 25.1381C34.8128 25.2517 34.8127 25.2521 34.8127 25.2524C34.8127 25.2525 34.8126 25.2529 34.8126 25.2531C34.8126 25.2535 34.8125 25.2538 34.8125 25.254C34.8124 25.2544 34.8124 25.2544 34.8125 25.2541C34.8126 25.2535 34.8128 25.2514 34.8133 25.248C34.8141 25.2411 34.8158 25.2286 34.8183 25.211C34.8234 25.1757 34.832 25.1196 34.8451 25.0454C34.8714 24.8968 34.9155 24.6765 34.9852 24.4051C35.1253 23.8599 35.3652 23.1213 35.7622 22.3472C36.554 20.8032 37.9364 19.1717 40.3807 18.5606L39.8957 16.6203C36.723 17.4134 34.946 19.5557 33.9825 21.4345C33.5019 22.3718 33.2153 23.2569 33.0481 23.9075C32.9643 24.2339 32.9097 24.5046 32.8756 24.6974C32.8586 24.7939 32.8466 24.8712 32.8386 24.9266C32.8347 24.9543 32.8317 24.9765 32.8296 24.993C32.8285 25.0012 32.8277 25.008 32.827 25.0132C32.8267 25.0159 32.8264 25.0182 32.8262 25.02C32.8261 25.021 32.826 25.0218 32.8259 25.0226C32.8259 25.023 32.8258 25.0235 32.8258 25.0237C32.8257 25.0241 32.8257 25.0246 33.8192 25.1381ZM40.3807 18.5606C42.8868 17.9342 45.1404 18.5532 46.8086 19.3669C47.6401 19.7725 48.3106 20.2195 48.7712 20.5637C49.0009 20.7353 49.1766 20.8801 49.2922 20.9793C49.35 21.0289 49.3926 21.0671 49.4193 21.0914C49.4326 21.1035 49.442 21.1122 49.4472 21.1171C49.4499 21.1196 49.4515 21.1211 49.4521 21.1217C49.4523 21.1219 49.4524 21.122 49.4521 21.1217C49.452 21.1216 49.4518 21.1214 49.4516 21.1212C49.4515 21.1211 49.4512 21.1209 49.4512 21.1208C49.4509 21.1206 49.4506 21.1203 50.1432 20.3989C50.8357 19.6775 50.8354 19.6772 50.8351 19.6769C50.835 19.6768 50.8346 19.6765 50.8344 19.6762C50.8339 19.6757 50.8333 19.6752 50.8326 19.6746C50.8313 19.6733 50.8297 19.6718 50.8279 19.6701C50.8242 19.6666 50.8194 19.6621 50.8136 19.6566C50.8019 19.6457 50.7859 19.6309 50.7658 19.6125C50.7254 19.5758 50.6683 19.5248 50.5951 19.462C50.4488 19.3363 50.2378 19.163 49.9684 18.9616C49.4306 18.5598 48.653 18.0414 47.6854 17.5694C45.7553 16.6279 43.0064 15.8427 39.8957 16.6203L40.3807 18.5606ZM50.1432 20.3989C51.1308 20.2418 51.1306 20.2411 51.1305 20.2404C51.1305 20.2401 51.1304 20.2394 51.1303 20.2388C51.1301 20.2377 51.1299 20.2365 51.1297 20.2352C51.1292 20.2325 51.1287 20.2293 51.1281 20.2257C51.1269 20.2184 51.1253 20.2093 51.1233 20.1983C51.1193 20.1763 51.1137 20.147 51.1063 20.1105C51.0914 20.0376 51.069 19.9361 51.0368 19.8081C50.9723 19.552 50.8683 19.1897 50.7061 18.7369C50.3815 17.8311 49.8242 16.5646 48.8845 15.0633C47.0026 12.0568 43.6024 8.13348 37.5132 4.28293L36.4442 5.97331C42.2909 9.67048 45.4729 13.3825 47.1893 16.1245C48.0487 17.4975 48.5445 18.6335 48.8233 19.4116C48.9628 19.8008 49.048 20.1008 49.0974 20.2966C49.122 20.3945 49.1377 20.4663 49.1466 20.5102C49.1511 20.5321 49.1539 20.5471 49.1553 20.5548C49.156 20.5586 49.1564 20.5607 49.1564 20.5609C49.1564 20.561 49.1563 20.5607 49.1562 20.5599C49.1561 20.5595 49.1561 20.5589 49.156 20.5583C49.1559 20.558 49.1558 20.5574 49.1558 20.5572C49.1557 20.5566 49.1556 20.556 50.1432 20.3989ZM37.5132 4.28293C34.3655 2.29249 29.7572 1.91205 26.1138 1.97267C24.2605 2.00351 22.5944 2.15058 21.3919 2.2897C20.79 2.35934 20.3026 2.42719 19.9639 2.47792C19.7945 2.5033 19.6622 2.52441 19.5713 2.53935C19.5258 2.54682 19.4907 2.55275 19.4665 2.5569C19.4543 2.55897 19.4449 2.5606 19.4383 2.56176C19.435 2.56234 19.4324 2.5628 19.4304 2.56313C19.4295 2.5633 19.4287 2.56344 19.4281 2.56355C19.4278 2.5636 19.4275 2.56366 19.4273 2.56368C19.4271 2.56373 19.4268 2.56377 19.6016 3.54838C19.7764 4.53299 19.7762 4.53302 19.7761 4.53303C19.7761 4.53303 19.7761 4.53304 19.7761 4.53303C19.7762 4.53301 19.7765 4.53296 19.777 4.53288C19.7779 4.53272 19.7795 4.53244 19.7818 4.53204C19.7864 4.53125 19.7937 4.52997 19.8037 4.52826C19.8238 4.52483 19.8546 4.51962 19.8956 4.51288C19.9777 4.49939 20.1007 4.47975 20.2602 4.45585C20.5794 4.40804 21.0445 4.34323 21.6218 4.27645C22.7777 4.14271 24.376 4.00186 26.1471 3.97239C29.7523 3.91241 33.8326 4.32183 36.4442 5.97331L37.5132 4.28293ZM19.6016 3.54838C19.412 2.56651 19.4116 2.56661 19.411 2.5667C19.4108 2.56675 19.4103 2.56685 19.4099 2.56693C19.409 2.5671 19.408 2.56729 19.407 2.5675C19.4048 2.56794 19.4021 2.56847 19.3989 2.56911C19.3925 2.57039 19.3842 2.57209 19.3739 2.57423C19.3533 2.57852 19.325 2.58459 19.2892 2.59262C19.2176 2.60868 19.1162 2.6326 18.9874 2.66588C18.7299 2.73241 18.3626 2.83639 17.9053 2.98973C16.9911 3.29631 15.7152 3.80089 14.2369 4.5993C11.2779 6.19729 7.50923 8.97194 4.21357 13.6823L5.8523 14.8288C8.94276 10.4118 12.4584 7.83281 15.1872 6.35907C16.5528 5.62161 17.7217 5.16079 18.5412 4.88594C18.9509 4.74856 19.2728 4.65782 19.4876 4.6023C19.5951 4.57455 19.6757 4.55562 19.7271 4.54409C19.7528 4.53832 19.7712 4.5344 19.782 4.53215C19.7874 4.53103 19.7908 4.53033 19.7924 4.53002C19.7932 4.52986 19.7934 4.52981 19.7932 4.52985C19.7931 4.52987 19.7929 4.52991 19.7926 4.52998C19.7924 4.53001 19.792 4.53008 19.792 4.5301C19.7916 4.53017 19.7912 4.53025 19.6016 3.54838ZM4.21357 13.6823C1.76397 17.1834 1.01199 22.1689 0.833764 26.1305C0.743515 28.1365 0.798777 29.9319 0.876424 31.2258C0.915288 31.8734 0.959865 32.3972 0.99496 32.7609C1.01251 32.9428 1.0277 33.0848 1.03864 33.1824C1.04411 33.2312 1.04852 33.2689 1.05163 33.2949C1.05318 33.308 1.05441 33.3181 1.05529 33.3252C1.05573 33.3288 1.05608 33.3316 1.05633 33.3337C1.05646 33.3347 1.05657 33.3355 1.05665 33.3362C1.05669 33.3365 1.05674 33.3369 1.05676 33.337C1.05679 33.3373 1.05683 33.3376 2.04895 33.2123C3.04108 33.0871 3.0411 33.0873 3.04111 33.0874C3.04111 33.0873 3.04112 33.0874 3.04111 33.0874C3.0411 33.0873 3.04106 33.087 3.041 33.0865C3.04088 33.0855 3.04067 33.0838 3.04037 33.0814C3.03977 33.0765 3.03882 33.0687 3.03754 33.058C3.03498 33.0365 3.03112 33.0035 3.0262 32.9596C3.01634 32.8717 3.00223 32.7399 2.98571 32.5688C2.95268 32.2264 2.91009 31.7269 2.87283 31.106C2.79823 29.8628 2.74539 28.1397 2.83174 26.2204C3.00671 22.3312 3.74673 17.8383 5.8523 14.8288L4.21357 13.6823Z" fill="black"/>
<path d="M19.8994 1.44238C19.8994 0.890098 19.4517 0.442383 18.8994 0.442383C18.3471 0.442383 17.8994 0.890098 17.8994 1.44238H19.8994ZM17.8994 1.44238V3.5487H19.8994V1.44238H17.8994Z" fill="black"/>
</svg>
