<?xml version="1.0" encoding="UTF-8"?>
<svg id="Layer_1" xmlns="http://www.w3.org/2000/svg" viewBox="0 0 113.39 49.53">
  <path d="M57.4,27.6c-.49.37-.89.69-1.31.99-1.61,1.17-3.3,2.17-5.31,2.47-2.31.35-4.05-.65-4.98-2.79-.06-.13-.1-.26-.16-.39-.17-.37-.12-1.01-.47-1.07-.28-.05-.67.43-.99.69-1.8,1.44-3.69,2.71-5.93,3.38-.9.27-1.82.45-2.77.41-1.43-.06-2.46-.72-3.04-2.03-.03-.07-.06-.15-.09-.22-.33-.76-.5-.8-1.17-.26-.5.4-1,.8-1.51,1.17-.19.14-.41.26-.63.33-1.23.37-2.01-.25-1.96-1.52,0-.21.12-.43,0-.68-.91.4-1.84.74-2.84.84-1.79.18-3.49-.16-5.15-.77-1.03-.37-1.21-.3-1.6.73-.39,1.03-.97,1.87-2.05,2.27-1.24.46-2.24,0-2.62-1.27-.36-1.17-.29-2.38-.08-3.55.69-3.77,1.97-7.33,4.03-10.59.36-.58.8-1.1,1.3-1.55.54-.48,1.17-.59,1.7-.32.5.26.75.82.65,1.55-.21,1.43-.72,2.77-1.4,4.04-1.44,2.69-3.01,5.3-5.02,7.61-.44.5-.4,2.15.04,2.66.37.42.97.52,1.46.16.8-.58,1.16-1.4,1.15-2.37,0-.48-.34-.78-.71-1.04-.3-.21-.63-.43-.38-.86.24-.42.63-.46,1.04-.28.23.1.47.24.65.42,1.77,1.67,3.97,2.09,6.29,2.13,1.38.02,2.62-.43,3.73-1.26.42-.31.8-.65,1.03-1.14.15-.31.38-.54.76-.38.42.18.35.54.22.87-.25.61-.54,1.2-.8,1.8-.16.37-.24.76-.23,1.16.02.34.19.44.47.29.33-.18.66-.38.94-.63,1.05-.92,2.05-1.89,2.85-3.05.06-.08.11-.16.18-.24.18-.22.39-.34.68-.22.3.12.35.36.31.63-.11.69-.24,1.37-.33,2.06-.16,1.26.32,1.96,1.54,2.31.81.23,1.62.19,2.42-.04,2.78-.81,5.14-2.33,7.23-4.28.34-.32.48-.72.47-1.18-.02-.77-.02-1.55-.03-2.33-.01-.71-.11-.81-.8-.76-1.51.1-3.02.21-4.53.32-.24.02-.48.03-.72.03-.3,0-.49-.13-.52-.45-.03-.34.14-.54.47-.58.39-.05.79-.07,1.19-.1,1.35-.1,2.7-.19,4.05-.28.83-.06.95-.14,1.13-.94.24-1.05.49-2.09.73-3.14.26-1.14.72-2.19,1.34-3.18.38-.62.82-.84,1.38-.68.63.18.92.6.9,1.36-.05,1.75-.46,3.42-1.02,5.07-.4,1.18-.38,1.2.82,1.15,1.47-.06,2.95-.13,4.42-.19.36-.02.72-.01,1.08-.02.37,0,.7.06.72.51.02.45-.29.55-.68.56-.92.02-1.83.04-2.75.09-1.27.06-2.55.16-3.82.21-.42.02-.66.21-.8.59-.42,1.12-.84,2.23-1.27,3.35-.08.21-.12.42-.06.64.15.6.27,1.21.48,1.78.73,2,2.34,2.86,4.41,2.33,2.34-.6,4.25-1.95,5.98-3.59.35-.33.66-.69,1-1.03.21-.21.49-.33.76-.17.25.15.26.44.19.7-.13.48-.31.95-.43,1.43-.28,1.09.09,1.86,1.09,2.36,1.31.64,2.65.6,4.01.19,3.57-1.08,5.83-3.5,6.99-6.95,1.25-3.7,2.85-7.21,5.26-10.32,3.8-4.91,8.63-8.36,14.67-9.91,4.58-1.17,8.87-.41,12.58,2.68,1.65,1.37,2.81,3.12,3.74,5.04,2.2,4.51,2.03,9.17.86,13.85-.69,2.76-1.86,5.35-3.37,7.78-.29.46-.34.89-.17,1.41.64,1.99,1.19,4.01,1.87,5.98.8,2.3,2.24,4.13,4.31,5.46.11.07.3.13.22.29-.1.2-.32.1-.49.1-3.99-.1-6.83-2.09-8.88-5.38-.32-.51-.62-1.02-.89-1.55-.22-.43-.35-.37-.63-.03-2.77,3.5-6.16,6.21-10.37,7.8-3.04,1.15-6.17,1.72-9.43,1.23-3.96-.59-6.78-2.89-9.02-6.04-.93-1.31-1.63-2.74-2.04-4.29-.16-.6-.44-.81-1.09-.79-6.15.2-12.31.39-18.46.55-8.09.21-16.17.38-24.26.59-6.55.17-13.11.29-19.66.55-.69.03-1.39-.04-2.09-.07-.46-.02-.71-.28-.69-.73.06-1.43.14-2.86.23-4.29.03-.5.38-.72.86-.74.82-.02,1.63-.05,2.45-.04.68,0,.78-.06.78-.71.01-1.04.01-1.05,1.05-1.1.82-.03,1.63-.01,2.45-.03.28,0,.46.04.44.39-.02.29.06.63-.4.64-.68,0-1.36.02-2.03,0-.54,0-.78.2-.8.77-.04,1.32.23,1.28-1.32,1.24-.46-.01-.92-.03-1.37-.05-.46-.02-.73.19-.73.65,0,.44.02.87.05,1.31.03.41.35.41.66.42,2.09.1,4.18.03,6.27-.02,5.34-.14,10.67-.29,16.01-.43,8.96-.24,17.92-.47,26.89-.71,5.22-.14,10.44-.26,15.65-.39.02,0,.04,0,.06,0,1.73-.03,1.92.12,2.35,1.77,1.33,5.1,5.63,8.25,10.88,8.01,4.18-.19,7.71-1.95,10.97-4.4,1.42-1.07,2.68-2.32,3.87-3.64.34-.38.39-.69.02-1.08-.35-.36-.68-.73-.96-1.14-.29-.42-.49-.34-.82-.04-1.65,1.51-3.38,2.91-5.45,3.83-6.23,2.79-14.07-.3-14.7-8.82-.58-7.78,2.72-14.05,9.07-18.6,2.54-1.82,5.49-2.59,8.62-2.03,4.1.73,6.53,3.4,7.67,7.26,1.21,4.06.65,8.03-.99,11.89-.6,1.42-.61,1.42.71,2.23q.94.58,1.42-.4c1.75-3.56,2.86-7.3,2.89-11.29.03-3.77-.75-7.28-3.45-10.13-2.48-2.62-5.54-3.63-9.09-3.26-5.13.53-9.28,2.99-12.91,6.52-3.38,3.28-5.89,7.09-7.35,11.57-1.18,3.62-3.42,6.35-6.9,7.99-1.66.79-3.4,1.26-5.27.87-.77-.17-1.46-.52-2.08-1.01-.76-.6-.89-1.47-1-2.46ZM97.89,20.76c.01-1.92-.39-3.64-1.21-5.17-1.63-3.04-4.5-4.51-7.84-3.99-1.75.27-3.29,1.03-4.69,2.1-3.71,2.85-5.84,6.65-6.75,11.19-.58,2.91-.05,5.61,1.5,8.13,1.89,3.08,5.53,4.43,8.98,3.34.74-.23.76-.28.54-1-.84-2.69.62-5.84,3.2-6.94,1.24-.53,2.54-.79,3.89-.8.49,0,.87-.1,1.08-.64.77-2,1.29-4.05,1.3-6.21ZM108.35,44.33c-.02-.07-.02-.12-.05-.14-.14-.11-.28-.22-.44-.31-1.3-.72-2.11-1.85-2.63-3.2-.36-.93-.7-1.86-1.04-2.8-.49-1.37-.81-2.79-1.41-4.12-.97-2.15-2.44-3.76-4.83-4.34-1.04-.25-2.08-.35-3.14-.26-1.36.11-2.62.51-3.65,1.45-.31.28-.63.57-.71,1.09,1.08-.57,2.15-.78,3.29-.73,2.43.11,4.23,1.28,5.52,3.27,1.46,2.23,2.89,4.48,4.33,6.73.81,1.27,1.85,2.28,3.21,2.96.48.24.98.39,1.53.41ZM19.35,15.38c-.01-.46-.24-.59-.6-.35-.15.1-.26.24-.38.37-.99,1.14-1.63,2.49-2.27,3.84-.76,1.62-1.35,3.32-1.81,5.05-.05.17-.18.43.05.53.2.08.25-.19.34-.33.58-.93,1.16-1.85,1.74-2.79.9-1.46,1.83-2.89,2.44-4.51.22-.6.41-1.2.49-1.82ZM48.64,14.42c-.05-.27.06-.59-.2-.69-.31-.11-.41.23-.56.42-.09.12-.16.28-.22.42-.7,1.53-1.08,3.16-1.35,4.81-.04.26-.14.66.17.75.34.1.57-.2.68-.53.04-.11.08-.23.11-.34.42-1.43.84-2.86,1.25-4.29.05-.19.08-.39.12-.54ZM46.01,23.18c.21-.53.38-.9.51-1.29.06-.19.06-.45-.16-.5-.2-.04-.35.17-.4.37-.1.41-.07.82.05,1.42Z"/>
  <path d="M57.88,24.04c-.17,0-.31-.07-.39-.22-.11-.21-.11-.44.05-.61.39-.4.85-.7,1.35-.96.19-.1.39-.03.53.14.14.16.17.35.09.55-.15.36-1.25,1.11-1.63,1.1Z"/>
</svg>