<?xml version="1.0" encoding="UTF-8"?>
<svg xmlns="http://www.w3.org/2000/svg" id="Layer_1" data-name="Layer 1" viewBox="0 0 24 24">
  <path d="m17.987,2.28C16.075.575,13.51-.234,10.937.062c-3.993.458-7.293,3.675-7.846,7.647-.421,3.014.678,6.01,2.939,8.013,1.252,1.109,1.97,2.725,1.97,4.431v.348c0,1.93,1.57,3.5,3.5,3.5h1c1.93,0,3.5-1.57,3.5-3.5v-.353c0-1.686.752-3.309,2.118-4.571,1.831-1.694,2.882-4.091,2.882-6.576,0-2.563-1.098-5.012-3.013-6.72Zm-2.987,18.22c0,1.378-1.121,2.5-2.5,2.5h-1c-1.379,0-2.5-1.122-2.5-2.5v-.348c0-.39-.041-.774-.104-1.152h6.213c-.066.378-.109.76-.109,1.147v.353Zm2.439-5.658c-.987.912-1.695,1.993-2.086,3.158h-6.691c-.374-1.161-1.047-2.21-1.969-3.027-2.01-1.78-2.986-4.444-2.612-7.126.491-3.528,3.422-6.384,6.969-6.792.323-.037.644-.055.962-.055,1.968,0,3.825.703,5.311,2.027,1.701,1.518,2.678,3.695,2.678,5.973,0,2.24-.909,4.315-2.561,5.842Zm-5.439-7.842c-1.103,0-2,.897-2,2s.897,2,2,2,2-.897,2-2-.897-2-2-2Zm0,3c-.552,0-1-.449-1-1s.448-1,1-1,1,.449,1,1-.448,1-1,1Zm5.331-2.904c.101-.388.044-.792-.158-1.136-.203-.346-.528-.592-.917-.692-.386-.101-.791-.044-1.138.159l-.222.131c-.408-.34-.882-.606-1.396-.786v-.271c0-.827-.673-1.5-1.5-1.5s-1.5.673-1.5,1.5v.271c-.515.18-.988.446-1.396.786l-.223-.131c-.345-.203-.75-.26-1.137-.159-.389.101-.714.347-.916.692-.203.345-.26.749-.159,1.137.101.388.347.713.692.917l.232.137c-.063.299-.094.576-.094.85s.03.551.094.85l-.232.137c-.346.203-.592.528-.692.917-.101.388-.044.792.158,1.136.203.346.528.591.917.692.388.1.792.044,1.138-.159l.222-.13c.408.339.882.606,1.396.786v.271c0,.827.673,1.5,1.5,1.5s1.5-.673,1.5-1.5v-.271c.515-.18.988-.446,1.396-.786l.223.131c.345.203.749.259,1.137.159.389-.101.714-.347.916-.692.203-.345.26-.749.159-1.137-.101-.388-.347-.713-.692-.917l-.232-.137c.063-.299.094-.576.094-.85s-.03-.551-.094-.85l.232-.137c.346-.203.592-.528.692-.917Zm-1.981.949c.103.361.15.664.15.955s-.048.594-.15.955c-.062.219.03.453.228.568l.556.327c.115.068.197.176.23.305.033.129.015.264-.054.379-.067.115-.176.197-.305.23-.129.036-.265.015-.379-.052l-.54-.318c-.196-.115-.446-.083-.607.078-.43.43-.984.742-1.604.903-.221.057-.375.256-.375.484v.642c0,.276-.225.5-.5.5s-.5-.224-.5-.5v-.642c0-.228-.154-.427-.375-.484-.619-.161-1.174-.473-1.604-.903-.096-.097-.225-.147-.354-.147-.087,0-.175.022-.254.069l-.539.317c-.116.069-.251.088-.38.053-.129-.033-.237-.115-.306-.231-.067-.115-.086-.249-.053-.378.033-.129.115-.237.23-.305l.556-.327c.197-.116.29-.349.228-.568-.103-.361-.15-.664-.15-.955s.048-.594.15-.955c.062-.219-.03-.453-.228-.568l-.556-.327c-.115-.068-.197-.176-.23-.305-.033-.129-.015-.264.054-.379.067-.115.176-.197.305-.23.13-.035.266-.014.379.053l.54.318c.197.117.448.084.607-.077.431-.431.985-.743,1.604-.903.221-.057.375-.256.375-.484v-.642c0-.276.225-.5.5-.5s.5.224.5.5v.642c0,.228.154.427.375.484.618.16,1.173.473,1.604.903.16.16.41.193.607.077l.539-.317c.115-.067.25-.086.38-.053.129.034.237.115.306.231.067.115.086.249.053.378-.033.129-.115.237-.23.305l-.556.327c-.197.116-.29.349-.228.568Z"/>
</svg>
