<svg width="96" height="45" viewBox="0 0 96 45" fill="none" xmlns="http://www.w3.org/2000/svg">
<path d="M33.9146 26.5403L27.5232 21.8228C23.0298 18.5063 16.7643 19.0832 12.9521 23.1645L3.52419 33.2579C2.33022 34.5362 3.23663 36.6231 4.98576 36.6231H28.2501" stroke="black" stroke-width="2" stroke-linecap="round" stroke-linejoin="round"/>
<path d="M27.5708 21.3292L41.1483 6.64659C44.3279 3.20818 49.768 3.22418 52.9273 6.68124L68.695 23.9349L71.6124 22.3141C74.6281 20.6387 78.4149 21.4103 80.5346 24.1321L93.4831 40.7583C94.5061 42.0718 93.5701 43.9872 91.9052 43.9872H57.8192" stroke="black" stroke-width="2" stroke-linecap="round" stroke-linejoin="round"/>
<path d="M50.3418 34.6975L58.0491 28.0378C60.3188 26.0766 63.6882 26.093 65.9387 28.0761L73.4529 34.6975" stroke="black" stroke-width="2" stroke-linecap="round" stroke-linejoin="round"/>
<path d="M24.2847 40.3616L31.3317 34.2724C33.9797 31.9843 37.9106 32.0034 40.5363 34.3171L47.3958 40.3616" stroke="black" stroke-width="2" stroke-linecap="round" stroke-linejoin="round"/>
</svg>
