<svg width="67" height="60" viewBox="0 0 67 60" fill="none" xmlns="http://www.w3.org/2000/svg">
<path d="M11.5736 58.6058C11.8763 58.2252 13.9439 54.7057 17.1763 50.3724M26.0493 58.6058C26.0493 58.6058 32.7521 48.253 40.0493 43.894C52.0552 36.7224 65.0264 36.7224 65.0264 36.7224M1.01465 46.9057C1.53182 46.9057 6.45076 46.9075 9.84966 47.5557C12.7798 48.1146 17.1763 50.3724 17.1763 50.3724M17.1763 50.3724C21.0551 45.8224 21.0551 45.1724 24.2874 42.3557M1.01465 35.8557C1.01465 35.8557 9.06475 36.1178 13.9439 37.5891C18.2001 38.8725 24.2874 42.3557 24.2874 42.3557M24.2874 42.3557C24.2874 42.3557 28.2817 38.6724 31.0065 36.7224M10.0186 36.7224V30.0057M10.0186 30.0057C10.0186 30.0057 5.04932 26.6919 5.04932 22.0374C5.04932 17.3829 7.54932 15.5374 10.5493 15.5374C13.5493 15.5374 15.5493 17.176 15.5493 22.0374C15.5493 26.8988 10.0186 30.0057 10.0186 30.0057ZM31.0065 22.3891C31.0065 22.3891 23.9491 17.8588 23.5493 12.0374C23.0929 5.39235 26.9636 1.39404 31.0065 1.39404C35.0493 1.39404 38.5057 5.39235 38.0493 12.0374C37.6495 17.8588 31.0065 22.3891 31.0065 22.3891ZM31.0065 22.3891C31.0065 22.3891 31.0065 31.1249 31.0065 36.7224M65.0146 25.7985C65.0146 25.7985 50.1704 26.9841 42.6039 30.4391C35.0373 33.894 31.0065 36.3833 31.0065 36.7224" stroke="black" stroke-width="2" stroke-linecap="round" stroke-linejoin="round"/>
</svg>
