<svg width="170" height="170" viewBox="0 0 170 170" fill="none" xmlns="http://www.w3.org/2000/svg">
<circle cx="85" cy="85" r="85" fill="white"/>
<path d="M104.971 116H65.0288C59.5092 116 55 111.491 55 105.971V66.0287C55 60.5092 59.5092 56 65.0288 56H104.971C110.491 56 115 60.5092 115 66.0287V105.971C115 111.515 110.515 116 104.971 116Z" fill="black"/>
<path d="M85.0117 101.413C80.8967 101.413 77.0282 99.811 74.1206 96.9034C71.213 93.9958 69.6113 90.1272 69.6113 86.0122C69.6113 81.8972 71.213 78.0287 74.1206 75.1211C77.0282 72.2135 80.8967 70.6118 85.0117 70.6118C89.1267 70.6118 92.9953 72.2135 95.9029 75.1211C98.8105 78.0287 100.412 81.8972 100.412 86.0122C100.412 90.1272 98.8105 93.9958 95.9029 96.9034C92.9707 99.811 89.1267 101.413 85.0117 101.413ZM85.0117 73.889C78.3341 73.889 72.8885 79.31 72.8885 86.0122C72.8885 92.6898 78.3095 98.1354 85.0117 98.1354C91.6894 98.1354 97.1349 92.7145 97.1349 86.0122C97.1103 79.3346 91.6894 73.889 85.0117 73.889Z" fill="white"/>
<path d="M103.414 70.1058C105.047 70.1058 106.371 68.7819 106.371 67.1488C106.371 65.5158 105.047 64.1919 103.414 64.1919C101.781 64.1919 100.457 65.5158 100.457 67.1488C100.457 68.7819 101.781 70.1058 103.414 70.1058Z" fill="white"/>
</svg>
