<svg width="52" height="64" viewBox="0 0 52 64" fill="none" xmlns="http://www.w3.org/2000/svg">
<path d="M18.9284 63H24.4764M30.0244 63H24.4764M24.4764 63V44.4862M24.4764 22.943V32.9573M24.4764 42.9715L30.0244 36.7442M24.4764 42.9715V32.9573M24.4764 42.9715V44.4862M24.4764 32.9573L18.9284 28.3289M24.4764 44.4862C24.4764 44.4862 20.886 45.4156 18.9284 44.4862C16.526 43.3457 15.2297 39.7737 15.2297 39.7737C15.2297 39.7737 2.11646 37.7541 1.10744 28.3289C0.0984246 18.9036 8.84105 16.5474 8.84105 16.5474C8.84105 16.5474 7.16013 5.77586 15.2297 2.07303C23.2992 -1.62979 30.0244 5.43916 30.0244 5.43916C30.0244 5.43916 38.0946 2.74634 42.4655 7.79546C46.8363 12.8446 45.1554 17.8938 45.1554 17.8938C45.1554 17.8938 51.8804 21.9331 49.5266 30.3485C47.1729 38.7638 37.0855 36.7442 37.0855 36.7442C37.0855 36.7442 36.7491 42.4665 32.3778 44.4862C28.0066 46.506 24.4764 44.4862 24.4764 44.4862Z" stroke="black" stroke-width="2" stroke-linecap="round" stroke-linejoin="round"/>
</svg>
