<svg width="56" height="57" viewBox="0 0 56 57" fill="none" xmlns="http://www.w3.org/2000/svg">
<path d="M21.5975 21.0732C21.5975 21.0732 21.1833 31.4006 20.0204 37.8957C18.7827 44.8081 15.2891 55.2439 15.2891 55.2439H37.3686L31.0602 21.0732" stroke="black" stroke-width="2" stroke-linecap="round" stroke-linejoin="round"/>
<path d="M33.6884 34.7415H53.1394C53.1394 34.7415 55.3168 28.7896 53.1394 26.3303C51.1908 24.1294 45.7795 24.7531 45.7795 24.7531V21.0732M45.7795 21.0732C45.7795 21.0732 47.882 18.4447 46.8308 15.8162C45.7795 13.1877 41.5739 14.2391 41.5739 14.2391C41.5739 14.2391 41.5739 2.14789 31.5855 1.09651C21.5972 0.0451313 19.4944 7.93065 19.4944 7.93065C19.4944 7.93065 13.7115 6.35354 11.0831 10.0335C8.4548 13.7134 11.0832 15.8162 11.0832 15.8162M45.7795 21.0732H20.5456" stroke="black" stroke-width="2" stroke-linecap="round" stroke-linejoin="round"/>
<path d="M20.0202 25.8043H1.09486C1.09486 25.8043 0.661137 22.9474 1.62056 21.5987C2.86297 19.8521 6.87759 20.0215 6.87759 20.0215C6.87759 20.0215 8.45494 14.5545 14.7631 15.8159C21.0713 17.0774 20.0202 25.8043 20.0202 25.8043Z" stroke="black" stroke-width="2" stroke-linecap="round" stroke-linejoin="round"/>
</svg>
