<svg width="170" height="170" viewBox="0 0 170 170" fill="none" xmlns="http://www.w3.org/2000/svg">
<circle cx="85" cy="85" r="85" fill="white"/>
<path d="M65.8066 74.0188H51.1797V120.663H65.8066V74.0188Z" fill="black"/>
<path d="M105.373 73.0077C104.834 72.9403 104.261 72.9066 103.688 72.8729C95.4985 72.5359 90.8813 77.389 89.2636 79.4786C88.8255 80.0515 88.6232 80.3886 88.6232 80.3886V74.1536H74.6367V120.798H88.6232H89.2636C89.2636 116.046 89.2636 111.327 89.2636 106.575C89.2636 104.014 89.2636 101.453 89.2636 98.8912C89.2636 95.7232 89.0277 92.3529 90.6117 89.4545C91.9598 87.0279 94.3864 85.8147 97.1163 85.8147C105.205 85.8147 105.373 93.1281 105.373 93.8021C105.373 93.8358 105.373 93.8695 105.373 93.8695V121H120V90.5667C120 80.1526 114.709 74.0188 105.373 73.0077Z" fill="black"/>
<path d="M58.493 67.986C63.1836 67.986 66.9861 64.1836 66.9861 59.493C66.9861 54.8025 63.1836 51 58.493 51C53.8024 51 50 54.8025 50 59.493C50 64.1836 53.8024 67.986 58.493 67.986Z" fill="black"/>
</svg>
