<?xml version="1.0" encoding="UTF-8"?>
<svg xmlns="http://www.w3.org/2000/svg" id="Layer_1" data-name="Layer 1" viewBox="0 0 24 24">
  <path d="M1,14.535l1-1v10.465H1V14.535Zm3.972-3.972l.028,13.438,1-.002-.03-14.434-.998,.998Zm4.528-4.527l-.53,.53,.03,17.435,1-.002-.03-17.493-.47-.47ZM22.5,0h-5.5V1h5.293l-6.793,6.793L9.5,1.793,.057,11.236l.707,.707L9.5,3.207l6,6L23,1.707V7h1V1.5c0-.827-.673-1.5-1.5-1.5Zm1.5,18c0,3.309-2.691,6-6,6s-6-2.691-6-6,2.691-6,6-6,6,2.691,6,6Zm-1,0c0-2.757-2.243-5-5-5s-5,2.243-5,5,2.243,5,5,5,5-2.243,5-5Zm-5.878-2h1.77c.102,0,.608,.024,.608,.5h1c0-.869-.677-1.5-1.608-1.5h-.392v-1h-1v1h-.378c-.895,0-1.622,.728-1.622,1.622,0,.729,.491,1.372,1.22,1.57l2.286,.499c.291,.077,.494,.342,.494,.643,0,.367-.299,.666-.666,.666h-1.668c-.156,0-.666-.036-.666-.5h-1c0,.883,.686,1.5,1.666,1.5h.334v1h1v-1h.334c.919,0,1.666-.747,1.666-1.666,0-.752-.508-1.414-1.258-1.614l-2.284-.498c-.27-.074-.458-.32-.458-.6,0-.343,.279-.622,.622-.622Z"/>
</svg>
