<?xml version="1.0" encoding="UTF-8"?>
<svg xmlns="http://www.w3.org/2000/svg" id="Layer_1" data-name="Layer 1" viewBox="0 0 24 24">
  <path d="m17.125,12.885c-1.048-1.044-2.682-1.148-3.855-.322l-5.27-5.27v-3.293c0-.834-.449-1.611-1.172-2.028L3.847.252C3.111-.174,2.178-.05,1.577.551L.551,1.577C-.05,2.178-.173,3.11.251,3.847l1.719,2.981c.417.723,1.194,1.172,2.029,1.172h3.293l5.267,5.267c-.364.506-.567,1.106-.567,1.741,0,.802.313,1.555.882,2.121l6.021,5.993c.564.562,1.333.878,2.127.878.978,0,1.791-.448,2.332-1.106.963-1.175.828-2.983-.309-4.117l-5.92-5.892ZM2.836,6.328l-1.719-2.981c-.199-.345-.141-.781.14-1.062l1.026-1.026c.281-.281.72-.338,1.063-.141l2.98,1.72c.415.239.672.686.672,1.163v3h-3c-.478,0-.923-.258-1.163-.672Zm19.744,15.931c-.367.447-.885.71-1.458.738-.57.026-1.121-.185-1.522-.584l-6.021-5.993c-.378-.377-.587-.879-.587-1.412,0-.534.208-1.036.587-1.415.392-.39.906-.585,1.419-.585s1.028.195,1.42.585t0,0l5.919,5.892c.776.773.882,1.992.241,2.773ZM9.278,5.396C10.063,2.694,12.353.625,15.111.124c1.095-.198,2.187-.159,3.244.116.498.13.876.503,1.012.999.134.491,0,1.001-.358,1.362l-3.543,3.573c-.646.646-.646,1.696-.001,2.341s1.694.644,2.339,0l3.557-3.587c.357-.362.863-.499,1.356-.369.498.132.875.509,1.01,1.009.284,1.059.331,2.152.139,3.252-.336,1.931-1.468,3.694-3.107,4.838-.087.061-.187.09-.286.09-.158,0-.313-.074-.411-.214-.158-.227-.103-.538.124-.696,1.422-.992,2.404-2.519,2.694-4.189.167-.955.126-1.904-.12-2.82-.058-.216-.229-.283-.3-.302-.069-.021-.243-.044-.39.105l-3.559,3.589c-1.035,1.037-2.718,1.038-3.754.002-.501-.501-.777-1.167-.777-1.877s.276-1.375.777-1.876l3.542-3.572c.149-.151.122-.326.103-.395-.019-.07-.087-.24-.299-.296-.917-.237-1.862-.271-2.813-.099-2.388.434-4.371,2.226-5.051,4.566-.077.265-.351.418-.62.341-.265-.077-.417-.354-.34-.62Zm1.329,11.553c.195.196.195.513,0,.708l-5.482,5.466c-.564.562-1.333.878-2.127.878-.997,0-1.791-.447-2.331-1.105-.964-1.175-.829-2.983.308-4.117l6.977-6.957c.196-.193.512-.194.707,0,.195.196.195.513,0,.708l-6.977,6.957c-.776.773-.882,1.992-.241,2.773.367.447.885.709,1.458.737.579.04,1.121-.185,1.521-.584l5.482-5.466c.195-.193.512-.194.707,0Z"/>
</svg>
