<svg width="170" height="170" viewBox="0 0 170 170" fill="none" xmlns="http://www.w3.org/2000/svg">
<circle cx="85" cy="85" r="85" fill="white"/>
<path fill-rule="evenodd" clip-rule="evenodd" d="M79.8325 98.8405C82.0485 98.912 84.05 101.843 89.9115 101.843C100.92 101.914 108.497 93.4793 110.856 82.3995C119.076 44.0135 63.1057 40.9398 57.3871 72.535C56.0289 79.9691 58.2449 88.547 64.0349 91.3348C68.4668 93.4793 68.7528 87.3318 67.3946 84.687C61.3901 72.9639 68.6098 62.3845 78.0455 59.3822C86.9093 56.5229 93.1997 58.8819 97.989 63.8141C104.137 70.1761 101.349 87.4748 94.0575 92.9789C91.4841 94.909 86.7663 95.3378 84.3359 93.0504C79.3321 88.4041 87.0522 78.5395 85.9085 71.3198C84.7648 64.1716 73.4706 65.2438 72.8987 75.7517C72.6128 81.1129 74.1854 82.6855 72.9702 88.0466C71.0402 96.6245 65.1786 114.138 69.3246 121C75.4006 118.141 78.4029 100.985 79.8325 98.8405Z" fill="black"/>
</svg>
