<svg width="74" height="56" viewBox="0 0 74 56" fill="none" xmlns="http://www.w3.org/2000/svg">
<path d="M1 32.1424C1 32.1424 9.40609 29.584 13.0609 23.7363C16.7157 17.8886 18.9086 14.5993 18.9086 14.5993C18.9086 14.5993 28.0457 1.44189 43.7614 1.44189C51.1257 1.44189 56.9467 4.29201 59.1117 8.38606C61.5668 13.029 57.6497 19.3505 57.6497 19.3505C57.6497 19.3505 58.7096 15.0369 55.8223 12.4064C53.4383 10.2343 49.6257 8.99573 46.3198 11.3099C39.0102 16.4268 43.0305 28.8531 51.4365 33.6043C58.819 37.777 73 36.1627 73 36.1627" stroke="black" stroke-width="2" stroke-linecap="round" stroke-linejoin="round"/>
<path d="M28.7034 23.3701C28.7034 23.3701 24.3088 35.2411 38.2252 42.3637C52.1416 49.4863 64.5931 47.1121 64.5931 47.1121" stroke="black" stroke-width="2" stroke-linecap="round" stroke-linejoin="round"/>
<path d="M16.3714 32.1426C16.3714 32.1426 15.6404 39.4522 22.9501 47.1273C30.2597 54.8025 39.3968 54.8025 39.3968 54.8025" stroke="black" stroke-width="2" stroke-linecap="round" stroke-linejoin="round"/>
</svg>
