<svg width="89" height="45" viewBox="0 0 89 45" fill="none" xmlns="http://www.w3.org/2000/svg">
<path d="M7.57804 26.2623L1.38086 34.4866H23.5874M7.57804 26.2623L25.5585 2.40039C26.7807 0.778315 29.2278 0.814101 30.4021 2.47122L44.7846 22.7669L34.182 16.7325C32.555 15.8064 30.4865 16.5804 29.8671 18.347L29.6154 19.0648C28.917 21.0562 26.3133 21.5246 24.9647 19.9014V19.9014C24.1582 18.9305 22.7889 18.6435 21.6604 19.2088L7.57804 26.2623ZM33.1891 37.7707L41.586 26.8791M87.3809 43.1221L60.4646 8.90248C59.2641 7.3762 56.9519 7.37529 55.7501 8.90063L41.586 26.8791M87.3809 43.1221L67.8805 28.7468C66.8624 27.9962 65.4829 27.9649 64.4318 28.6684L62.5331 29.9392C60.8441 31.0696 58.5435 30.2288 57.9814 28.2758L56.6568 23.6728C56.147 21.9015 54.1755 21.0045 52.5052 21.7839L41.586 26.8791M87.3809 43.1221H47.3261" stroke="black" stroke-width="2" stroke-linecap="round" stroke-linejoin="round"/>
</svg>
