<svg width="80" height="51" viewBox="0 0 80 51" fill="none" xmlns="http://www.w3.org/2000/svg">
<path d="M55.6103 47.0076C56.1524 47.1136 56.6777 46.7601 56.7837 46.2181C56.8896 45.676 56.5362 45.1507 55.9941 45.0448L55.6103 47.0076ZM55.8022 46.0262C55.9941 45.0448 55.9941 45.0447 55.994 45.0447C55.9939 45.0447 55.9937 45.0447 55.9934 45.0446C55.9929 45.0445 55.992 45.0443 55.9907 45.0441C55.9883 45.0436 55.9845 45.0429 55.9794 45.0419C55.9692 45.0399 55.9538 45.0368 55.9335 45.0328C55.8927 45.0247 55.8319 45.0126 55.7526 44.9966C55.594 44.9647 55.3617 44.9174 55.0679 44.8562C54.4804 44.7339 53.6479 44.5563 52.6704 44.3354C50.712 43.893 48.1847 43.28 45.8803 42.5932C43.5286 41.8924 41.5575 41.156 40.6032 40.503C40.3732 40.3457 40.2627 40.2325 40.2205 40.1752C40.1832 40.1244 40.2636 40.2099 40.2354 40.3838C40.2088 40.548 40.119 40.5773 40.2217 40.4985C40.3245 40.4196 40.5361 40.2999 40.92 40.1628L40.2473 38.2793C39.7651 38.4516 39.3378 38.6557 39.0038 38.9121C38.6697 39.1686 38.3452 39.5448 38.2611 40.0641C38.1754 40.5933 38.3755 41.0424 38.6099 41.3608C38.8394 41.6726 39.1528 41.934 39.4738 42.1536C40.7234 43.0086 42.9899 43.8188 45.3091 44.5099C47.6753 45.2151 50.2518 45.8394 52.2296 46.2863C53.2201 46.5101 54.0638 46.6901 54.6603 46.8143C54.9587 46.8764 55.1953 46.9245 55.3578 46.9573C55.4391 46.9736 55.5018 46.9861 55.5444 46.9946C55.5657 46.9988 55.582 47.002 55.593 47.0042C55.5985 47.0053 55.6028 47.0061 55.6057 47.0067C55.6071 47.0069 55.6082 47.0072 55.609 47.0073C55.6094 47.0074 55.6097 47.0075 55.6099 47.0075C55.6102 47.0075 55.6103 47.0076 55.8022 46.0262ZM40.92 40.1628C44.2767 38.964 48.2176 38.3901 52.7602 37.6564C57.2672 36.9285 62.2878 36.0518 67.6319 34.2286L66.9861 32.3357C61.8132 34.1005 56.9356 34.9561 52.4413 35.682C47.9827 36.4021 43.8194 37.0036 40.2473 38.2793L40.92 40.1628ZM67.6319 34.2286C72.9572 32.4117 76.0504 30.4864 77.7162 28.6489C79.4205 26.7689 79.6592 24.9296 79.1334 23.5276L77.2608 24.2299C77.4774 24.8075 77.5305 25.8759 76.2344 27.3056C74.8998 28.7779 72.1777 30.5644 66.9861 32.3357L67.6319 34.2286ZM79.1334 23.5276C78.9486 23.0346 78.5608 22.6296 78.1751 22.3096C77.768 21.972 77.2525 21.6399 76.6675 21.3173C75.495 20.6707 73.9437 20.008 72.1756 19.3793C68.635 18.1205 64.1166 16.9598 59.7813 16.3315L59.4944 18.3108C63.6963 18.9198 68.0864 20.0481 71.5055 21.2638C73.2173 21.8724 74.6586 22.4934 75.7017 23.0686C76.2244 23.3569 76.6224 23.6203 76.8983 23.849C77.0352 23.9626 77.1294 24.0574 77.1907 24.1312C77.2537 24.2071 77.2647 24.2403 77.2608 24.2299L79.1334 23.5276ZM59.7813 16.3315C57.6267 16.0192 55.2111 15.7544 52.871 15.4959C50.5208 15.2362 48.2497 14.9833 46.3487 14.6932C44.4063 14.3967 42.9899 14.0797 42.2654 13.7374C42.0949 13.6569 42.0103 13.5961 41.9782 13.5676C41.9457 13.5387 42.0185 13.5899 42.0512 13.7339C42.1339 14.0991 41.8332 14.1761 42.1832 13.907L40.9637 12.3217C40.5094 12.6712 39.9033 13.3051 40.1006 14.1758C40.1905 14.5725 40.4256 14.8637 40.6505 15.0633C40.8758 15.2633 41.1438 15.4195 41.4112 15.5458C42.4382 16.031 44.1382 16.379 46.0469 16.6703C47.9969 16.9679 50.3116 17.2253 52.6514 17.4838C55.0014 17.7434 57.3803 18.0044 59.4944 18.3108L59.7813 16.3315ZM42.1832 13.907C43.6855 12.7513 46.7641 11.2179 49.5664 9.94133C50.9475 9.31214 52.23 8.7592 53.1675 8.36345C53.6361 8.16567 54.0179 8.00737 54.2822 7.89869C54.4143 7.84436 54.517 7.80244 54.5864 7.77421C54.6211 7.76009 54.6475 7.7494 54.6651 7.74228C54.6739 7.73873 54.6805 7.73606 54.6848 7.73432C54.687 7.73344 54.6886 7.7328 54.6896 7.73239C54.6901 7.73218 54.6905 7.73203 54.6907 7.73194C54.6908 7.73189 54.6909 7.73187 54.6909 7.73185C54.691 7.73184 54.691 7.73184 54.3175 6.8042C53.944 5.87656 53.9439 5.87659 53.9438 5.87664C53.9437 5.87667 53.9436 5.87674 53.9434 5.87681C53.943 5.87695 53.9425 5.87715 53.9419 5.87741C53.9406 5.87793 53.9388 5.87868 53.9363 5.87966C53.9315 5.88162 53.9243 5.8845 53.915 5.88827C53.8963 5.89583 53.8688 5.90697 53.833 5.92155C53.7613 5.95071 53.6562 5.99361 53.5215 6.04899C53.2522 6.15974 52.8646 6.32043 52.3897 6.5209C51.4404 6.92165 50.14 7.48227 48.7373 8.12129C45.9718 9.38112 42.6783 11.0028 40.9637 12.3217L42.1832 13.907Z" fill="black"/>
<path d="M33.9022 49.6135C33.9022 49.6135 30.5616 44.9118 20.6633 41.9423C10.765 38.9728 -1.77051 36.3144 5.19718 34.766C10.7649 33.5288 20.6633 32.9101 20.6633 32.9101C20.6633 32.9101 30.4378 32.044 36.9954 31.0542C43.553 30.0643 57.2869 28.9508 57.2869 25.6101C57.2869 22.2694 32.5412 16.7017 32.5412 16.7017" stroke="black" stroke-width="2" stroke-linecap="round"/>
<path d="M45.4091 29.5699L21.5105 5.67136C20.7096 4.87046 19.4041 4.89384 18.6324 5.72291L1.73291 23.8784" stroke="black" stroke-width="2" stroke-linecap="round"/>
<path d="M45.249 15.3495L59.8768 1.8919C60.6491 1.1814 61.8392 1.18862 62.6028 1.90844L77.246 15.712" stroke="black" stroke-width="2" stroke-linecap="round"/>
</svg>
